<?xml version="1.0" encoding="utf-8"?>
<!-- Generator: Adobe Illustrator 18.0.0, SVG Export Plug-In . SVG Version: 6.00 Build 0)  -->
<!DOCTYPE svg PUBLIC "-//W3C//DTD SVG 1.1//EN" "http://www.w3.org/Graphics/SVG/1.1/DTD/svg11.dtd">
<svg version="1.1" xmlns="http://www.w3.org/2000/svg" xmlns:xlink="http://www.w3.org/1999/xlink" x="0px" y="0px"
	 viewBox="0 0 247.6 91.5" enable-background="new 0 0 247.6 91.5" xml:space="preserve">
<g id="Layer_1">
</g>
<g id="图层_1">
	<path fill="#CCCCCC" d="M45.5,79.9C32.7,76.2,23.9,65.2,22,52.7l0,0l1.5-0.2c1.8,12,10.2,22.4,22.4,26l0,0c2.8,0.8,5.6,1.2,8.4,1.2
		l0,0c9,0,17.5-4,23.4-10.7l0,0l0,0l1.1,1c-6.2,7-15.2,11.2-24.6,11.2l0,0C51.4,81.1,48.5,80.7,45.5,79.9L45.5,79.9z"/>
	<path fill="#CCCCCC" d="M54.7,80.5c3.7-0.3,7.4-1.2,10.8-2.8l0,0c11.2-5.1,17.8-16.2,18-27.7l0,0v0l2.4,0
		c-0.2,12.4-7.4,24.3-19.4,29.8l0,0c-3.7,1.7-7.7,2.7-11.6,3l0,0L54.7,80.5L54.7,80.5z"/>
	<path fill-rule="evenodd" clip-rule="evenodd" fill="#CCCCCC" d="M62.9,27c12.5,0,22.7,10.2,22.7,22.7c0,12.5-10.2,22.7-22.7,22.7
		c-12.5,0-22.7-10.2-22.7-22.7C40.2,37.2,50.4,27,62.9,27z"/>
	<path fill="#CCCCCC" d="M16,48.2c-0.1-0.9-0.1-1.8-0.1-2.7l0,0c0-18.5,14.4-34.2,33.1-35.6l0,0l0.1,1.7
		C31.4,13,17.6,27.9,17.6,45.5l0,0c0,0.8,0,1.7,0.1,2.6l0,0c0.9,12.6,8.6,23,19.3,28.2l0,0h0l-0.7,1.5C25.1,72.4,17,61.4,16,48.2
		L16,48.2z"/>
	<path fill="#CCCCCC" d="M19.6,51.8c-0.7-2.6-1-5.2-1-7.8l0,0c0-14,9.7-26.8,24.1-30.5l0,0l0.4,1.7C29.5,18.6,20.4,30.7,20.4,44l0,0
		c0,2.4,0.3,4.9,0.9,7.3l0,0c3.5,13.4,15.9,22.4,29.4,22.4l0,0c2.5,0,5-0.3,7.4-0.9l0,0c6.1-1.5,11.2-4.8,15-9.1l0,0l0,0l1.3,1.2
		c-4.1,4.5-9.5,8-15.9,9.6l0,0c-2.6,0.7-5.3,1-7.9,1l0,0C36.5,75.5,23.4,66,19.6,51.8L19.6,51.8z"/>
	<path fill="#CCCCCC" d="M20.4,52c0-0.4,0-0.9,0-1.3l0,0c0-7.4,2.5-14.2,6.6-19.8l0,0l2.5,1.9c-3.8,5.1-6,11.3-6,17.9l0,0
		c0,0.4,0,0.8,0,1.2l0,0c0.5,12.2,8.5,22.6,19.6,27.3l0,0L41.9,82C29.8,76.9,21,65.5,20.4,52L20.4,52z"/>
	<path fill="#CCCCCC" d="M52.9,77.7c-7.2,0-14.5-2.4-20.5-7.3l0,0C24.8,64,20.8,54.8,20.8,45.5l0,0c0-7.2,2.4-14.5,7.3-20.4l0,0
		l2.3,1.9c-4.5,5.4-6.6,12-6.6,18.5l0,0c0,8.4,3.6,16.8,10.5,22.6l0,0c5.4,4.5,12,6.7,18.6,6.7l0,0c8.4,0,16.8-3.6,22.5-10.6l0,0
		c3.8-4.7,6-10.1,6.6-15.8l0,0v0l2.9,0.3c-0.6,6.2-3,12.2-7.2,17.4l0,0C71.4,73.8,62.2,77.7,52.9,77.7L52.9,77.7
		C52.9,77.7,52.9,77.7,52.9,77.7L52.9,77.7z"/>
	<path fill="#CCCCCC" d="M22.8,56.7c-2-4.5-3-9.3-3-14l0,0c0-2.8,0.3-5.6,1-8.3l0,0l1.3,0.3c-0.6,2.6-1,5.3-1,8l0,0
		c0,4.5,0.9,9.1,2.9,13.4l0,0c5.2,11.7,16.4,18.8,28.1,19l0,0l0,1.3C39.9,76.2,28.2,68.9,22.8,56.7L22.8,56.7z"/>
	<path fill="#CCCCCC" d="M20.1,41.1c0-7.6,2.7-15.3,8.2-21.6l0,0c1.6-1.9,3.4-3.5,5.3-5.1l0,0l0.9,1.1c-1.8,1.5-3.5,3-5.1,4.9l0,0
		c-5.3,6.1-7.9,13.4-7.9,20.7l0,0c0,1.3,0.1,2.7,0.3,4l0,0h0l-1.5,0.2C20.2,43.9,20.1,42.5,20.1,41.1L20.1,41.1z"/>
	<path fill="#CCCCCC" d="M68.5,74.9c2.9-1.5,5.5-3.6,7.7-6.1l0,0c4.6-5.2,6.9-11.6,6.9-18.1l0,0c0-3.7-0.7-7.3-2.2-10.7l0,0l1.7-0.7
		c1.5,3.6,2.3,7.5,2.3,11.4l0,0c0,6.9-2.4,13.8-7.3,19.3l0,0c-2.4,2.8-5.2,4.9-8.2,6.5l0,0L68.5,74.9L68.5,74.9z"/>
	<g>
		<path fill="#CCCCCC" d="M103.2,34.5h5.7v1h-4.6V38h4v1h-4v3.7h-1.1V34.5z"/>
		<path fill="#CCCCCC" d="M110.5,34.5h1v1.1h-1V34.5z M110.5,36.8h1v6h-1V36.8z"/>
		<path fill="#CCCCCC" d="M113.6,36.8h1v0.8c0.3-0.4,0.6-0.6,0.9-0.8c0.3-0.2,0.7-0.2,1.1-0.2c0.8,0,1.4,0.3,1.7,0.9
			c0.2,0.3,0.2,0.8,0.2,1.4v3.8h-1V39c0-0.4-0.1-0.7-0.2-0.9c-0.2-0.4-0.5-0.6-1-0.6c-0.2,0-0.4,0-0.6,0.1c-0.3,0.1-0.5,0.2-0.7,0.5
			c-0.2,0.2-0.3,0.4-0.3,0.6c0,0.2-0.1,0.5-0.1,0.9v3.1h-1V36.8z"/>
		<path fill="#CCCCCC" d="M124.3,36.9c0.4,0.2,0.7,0.5,0.9,0.8c0.2,0.3,0.3,0.7,0.4,1.1c0.1,0.3,0.1,0.7,0.1,1.3h-4.4
			c0,0.6,0.2,1.1,0.4,1.5c0.3,0.4,0.7,0.6,1.2,0.6c0.5,0,0.9-0.2,1.2-0.5c0.2-0.2,0.3-0.4,0.4-0.7h1c0,0.2-0.1,0.5-0.3,0.7
			c-0.1,0.3-0.3,0.5-0.5,0.7c-0.3,0.3-0.7,0.5-1.1,0.6c-0.2,0.1-0.5,0.1-0.8,0.1c-0.7,0-1.4-0.3-1.9-0.8c-0.5-0.5-0.8-1.3-0.8-2.3
			c0-1,0.3-1.7,0.8-2.3c0.5-0.6,1.2-0.9,2-0.9C123.5,36.6,123.9,36.7,124.3,36.9z M124.6,39.3c0-0.4-0.1-0.8-0.3-1
			c-0.3-0.5-0.7-0.7-1.4-0.7c-0.5,0-0.8,0.2-1.2,0.5c-0.3,0.3-0.5,0.8-0.5,1.3H124.6z"/>
		<path fill="#CCCCCC" d="M133.2,34.5h1.3l3,8.2h-1.2l-0.9-2.5h-3.2l-0.9,2.5h-1.1L133.2,34.5z M135,39.4l-1.3-3.6l-1.3,3.6H135z"/>
		<path fill="#CCCCCC" d="M138.9,36.8h1v1c0.1-0.2,0.3-0.4,0.6-0.7c0.3-0.3,0.7-0.4,1.1-0.4c0,0,0.1,0,0.1,0c0,0,0.1,0,0.2,0v1.1
			c-0.1,0-0.1,0-0.2,0c0,0-0.1,0-0.2,0c-0.5,0-0.9,0.2-1.2,0.5c-0.3,0.3-0.4,0.7-0.4,1.1v3.4h-1V36.8z"/>
		<path fill="#CCCCCC" d="M143.4,35.1h1v1.7h1v0.8h-1v3.9c0,0.2,0.1,0.3,0.2,0.4c0.1,0,0.2,0.1,0.4,0.1c0,0,0.1,0,0.2,0
			c0.1,0,0.1,0,0.2,0v0.8c-0.1,0-0.2,0.1-0.4,0.1c-0.1,0-0.3,0-0.4,0c-0.5,0-0.8-0.1-1-0.4c-0.2-0.2-0.3-0.6-0.3-0.9v-4h-0.8v-0.8
			h0.8V35.1z"/>
		<path fill="#CCCCCC" d="M147.6,40.9c0,0.3,0.1,0.6,0.3,0.8c0.3,0.3,0.7,0.5,1.3,0.5c0.4,0,0.7-0.1,1-0.2c0.3-0.2,0.4-0.4,0.4-0.8
			c0-0.3-0.1-0.5-0.3-0.6c-0.1-0.1-0.4-0.2-0.9-0.3l-0.8-0.2c-0.5-0.1-0.9-0.3-1.1-0.4c-0.4-0.3-0.7-0.6-0.7-1.1
			c0-0.6,0.2-1,0.6-1.4c0.4-0.4,1-0.5,1.7-0.5c0.9,0,1.6,0.3,2,0.8c0.3,0.3,0.4,0.7,0.4,1.1h-0.9c0-0.2-0.1-0.4-0.2-0.6
			c-0.2-0.3-0.6-0.4-1.2-0.4c-0.4,0-0.7,0.1-0.9,0.2c-0.2,0.1-0.3,0.3-0.3,0.6c0,0.3,0.1,0.5,0.4,0.6c0.2,0.1,0.4,0.2,0.7,0.2
			l0.7,0.2c0.7,0.2,1.2,0.3,1.5,0.5c0.4,0.3,0.6,0.7,0.6,1.2c0,0.5-0.2,1-0.6,1.4c-0.4,0.4-1,0.6-1.9,0.6c-0.9,0-1.5-0.2-1.9-0.6
			c-0.4-0.4-0.6-0.9-0.6-1.5H147.6z"/>
		<path fill="#CCCCCC" d="M158.9,34.5h1.3l3,8.2h-1.2l-0.9-2.5h-3.2l-0.9,2.5h-1.1L158.9,34.5z M160.7,39.4l-1.3-3.6l-1.3,3.6H160.7
			z"/>
		<path fill="#CCCCCC" d="M168.5,37.1c0.4,0.3,0.7,0.9,0.8,1.7h-1c-0.1-0.4-0.2-0.7-0.4-0.9c-0.2-0.2-0.6-0.4-1-0.4
			c-0.6,0-1.1,0.3-1.4,0.9c-0.2,0.4-0.3,0.9-0.3,1.5c0,0.6,0.1,1.1,0.4,1.5c0.3,0.4,0.7,0.6,1.2,0.6c0.4,0,0.7-0.1,1-0.4
			c0.2-0.3,0.4-0.6,0.5-1h1c-0.1,0.8-0.4,1.4-0.8,1.7c-0.4,0.4-1,0.5-1.7,0.5c-0.8,0-1.4-0.3-1.9-0.9c-0.5-0.6-0.7-1.3-0.7-2.1
			c0-1,0.3-1.9,0.8-2.5c0.5-0.6,1.2-0.9,1.9-0.9C167.6,36.6,168.1,36.8,168.5,37.1z"/>
		<path fill="#CCCCCC" d="M174.1,39.1c0.2,0,0.4-0.1,0.5-0.3c0-0.1,0.1-0.2,0.1-0.4c0-0.3-0.1-0.6-0.4-0.7c-0.2-0.2-0.6-0.2-1-0.2
			c-0.5,0-0.9,0.1-1.1,0.4c-0.1,0.2-0.2,0.4-0.2,0.7h-0.9c0-0.7,0.3-1.3,0.7-1.5c0.5-0.3,1-0.4,1.6-0.4c0.7,0,1.3,0.1,1.7,0.4
			c0.4,0.3,0.7,0.7,0.7,1.3v3.4c0,0.1,0,0.2,0.1,0.3c0,0.1,0.1,0.1,0.3,0.1c0,0,0.1,0,0.2,0c0.1,0,0.1,0,0.2,0v0.7
			c-0.2,0-0.3,0.1-0.4,0.1c-0.1,0-0.2,0-0.3,0c-0.3,0-0.6-0.1-0.8-0.4c-0.1-0.1-0.1-0.3-0.2-0.6c-0.2,0.3-0.5,0.5-0.9,0.7
			c-0.4,0.2-0.8,0.3-1.3,0.3c-0.6,0-1-0.2-1.4-0.5c-0.4-0.3-0.5-0.8-0.5-1.3c0-0.6,0.2-1,0.5-1.3c0.3-0.3,0.8-0.5,1.4-0.6
			L174.1,39.1z M172,41.8c0.2,0.2,0.5,0.3,0.8,0.3c0.4,0,0.7-0.1,1-0.2c0.6-0.3,0.8-0.7,0.8-1.3v-0.8c-0.1,0.1-0.3,0.1-0.5,0.2
			c-0.2,0.1-0.4,0.1-0.6,0.1l-0.6,0.1c-0.4,0-0.6,0.1-0.8,0.2c-0.3,0.2-0.5,0.5-0.5,0.8C171.6,41.4,171.7,41.7,172,41.8z"/>
		<path fill="#CCCCCC" d="M181.1,36.9c0.2,0.1,0.4,0.3,0.6,0.6v-3h1v8.2h-0.9v-0.8c-0.2,0.4-0.5,0.6-0.8,0.8
			c-0.3,0.2-0.7,0.2-1.1,0.2c-0.7,0-1.2-0.3-1.7-0.8c-0.5-0.6-0.7-1.3-0.7-2.2c0-0.9,0.2-1.6,0.7-2.3c0.4-0.6,1.1-1,1.9-1
			C180.4,36.7,180.8,36.8,181.1,36.9z M178.8,41.4c0.3,0.4,0.7,0.6,1.3,0.6c0.5,0,0.8-0.2,1.1-0.6c0.3-0.4,0.4-1,0.4-1.7
			c0-0.8-0.2-1.3-0.5-1.7c-0.3-0.4-0.7-0.5-1.1-0.5c-0.5,0-0.9,0.2-1.2,0.6c-0.3,0.4-0.5,1-0.5,1.7C178.4,40.5,178.6,41,178.8,41.4z
			"/>
		<path fill="#CCCCCC" d="M188.4,36.9c0.4,0.2,0.7,0.5,0.9,0.8c0.2,0.3,0.3,0.7,0.4,1.1c0.1,0.3,0.1,0.7,0.1,1.3h-4.3
			c0,0.6,0.2,1.1,0.4,1.5c0.3,0.4,0.7,0.6,1.2,0.6c0.5,0,0.9-0.2,1.2-0.5c0.2-0.2,0.3-0.4,0.4-0.7h1c0,0.2-0.1,0.5-0.3,0.7
			c-0.1,0.3-0.3,0.5-0.5,0.7c-0.3,0.3-0.7,0.5-1.1,0.6c-0.2,0.1-0.5,0.1-0.8,0.1c-0.7,0-1.4-0.3-1.9-0.8c-0.5-0.5-0.8-1.3-0.8-2.3
			c0-1,0.3-1.7,0.8-2.3c0.5-0.6,1.2-0.9,2-0.9C187.6,36.6,188,36.7,188.4,36.9z M188.8,39.3c0-0.4-0.1-0.8-0.3-1
			c-0.3-0.5-0.7-0.7-1.4-0.7c-0.5,0-0.8,0.2-1.2,0.5c-0.3,0.3-0.5,0.8-0.5,1.3H188.8z"/>
		<path fill="#CCCCCC" d="M191.7,36.8h1v0.8c0.2-0.3,0.5-0.5,0.6-0.6c0.3-0.2,0.7-0.3,1.1-0.3c0.5,0,0.9,0.1,1.1,0.4
			c0.2,0.1,0.3,0.3,0.4,0.6c0.2-0.3,0.5-0.6,0.8-0.7c0.3-0.2,0.6-0.2,1-0.2c0.8,0,1.4,0.3,1.6,0.9c0.2,0.3,0.2,0.7,0.2,1.3v4h-1
			v-4.2c0-0.4-0.1-0.7-0.3-0.8c-0.2-0.1-0.4-0.2-0.7-0.2c-0.4,0-0.7,0.1-1,0.4c-0.3,0.3-0.4,0.7-0.4,1.3v3.5h-1v-3.9
			c0-0.4,0-0.7-0.1-0.9c-0.2-0.3-0.4-0.4-0.9-0.4c-0.4,0-0.7,0.1-1,0.4c-0.3,0.3-0.5,0.8-0.5,1.6v3.2h-1V36.8z"/>
		<path fill="#CCCCCC" d="M205.5,36.8h1.1c-0.1,0.4-0.5,1.3-0.9,2.6c-0.4,1-0.7,1.9-0.9,2.5c-0.6,1.5-1,2.5-1.2,2.8
			c-0.2,0.3-0.6,0.5-1.2,0.5c-0.1,0-0.2,0-0.3,0c-0.1,0-0.2,0-0.3-0.1v-0.9c0.2,0,0.3,0.1,0.4,0.1c0.1,0,0.1,0,0.2,0
			c0.2,0,0.3,0,0.4-0.1c0.1-0.1,0.2-0.1,0.2-0.2c0,0,0.1-0.2,0.2-0.5c0.1-0.3,0.2-0.5,0.3-0.6l-2.2-6.2h1.1l1.6,4.9L205.5,36.8z"/>
	</g>
	<g>
		<path fill="#CCCCCC" d="M103.1,49.5h1.1v3.4h4.2v-3.4h1.1v8.2h-1.1v-3.8h-4.2v3.8h-1.1V49.5z"/>
		<path fill="#CCCCCC" d="M112.8,51.7v4c0,0.3,0,0.6,0.1,0.7c0.2,0.4,0.5,0.5,1,0.5c0.7,0,1.1-0.3,1.4-0.9c0.1-0.3,0.2-0.8,0.2-1.4
			v-2.9h1v6h-0.9l0-0.9c-0.1,0.2-0.3,0.4-0.5,0.6c-0.4,0.3-0.8,0.5-1.4,0.5c-0.8,0-1.4-0.3-1.7-0.9c-0.2-0.3-0.2-0.7-0.2-1.2v-4.1
			H112.8z"/>
		<path fill="#CCCCCC" d="M118.7,51.7h1v0.8c0.3-0.4,0.6-0.6,0.9-0.8c0.3-0.2,0.7-0.2,1.1-0.2c0.8,0,1.4,0.3,1.7,0.9
			c0.2,0.3,0.2,0.8,0.2,1.4v3.8h-1v-3.8c0-0.4-0.1-0.7-0.2-0.9c-0.2-0.4-0.5-0.6-1-0.6c-0.2,0-0.4,0-0.6,0.1
			c-0.3,0.1-0.5,0.2-0.7,0.5c-0.2,0.2-0.3,0.4-0.3,0.6c0,0.2-0.1,0.5-0.1,0.9v3.1h-1V51.7z"/>
		<path fill="#CCCCCC" d="M128.9,54.1c0.2,0,0.4-0.1,0.5-0.3c0-0.1,0.1-0.2,0.1-0.4c0-0.3-0.1-0.6-0.4-0.7c-0.2-0.2-0.6-0.2-1-0.2
			c-0.5,0-0.9,0.1-1.1,0.4c-0.1,0.2-0.2,0.4-0.2,0.7h-0.9c0-0.7,0.3-1.3,0.7-1.5c0.5-0.3,1-0.4,1.6-0.4c0.7,0,1.3,0.1,1.7,0.4
			c0.4,0.3,0.7,0.7,0.7,1.3v3.4c0,0.1,0,0.2,0.1,0.3c0,0.1,0.1,0.1,0.3,0.1c0,0,0.1,0,0.2,0c0.1,0,0.1,0,0.2,0v0.7
			c-0.2,0-0.3,0.1-0.4,0.1c-0.1,0-0.2,0-0.3,0c-0.3,0-0.6-0.1-0.8-0.4c-0.1-0.1-0.1-0.3-0.2-0.6c-0.2,0.3-0.5,0.5-0.9,0.7
			c-0.4,0.2-0.8,0.3-1.3,0.3c-0.6,0-1-0.2-1.4-0.5c-0.4-0.3-0.5-0.8-0.5-1.3c0-0.6,0.2-1,0.5-1.3c0.3-0.3,0.8-0.5,1.4-0.6
			L128.9,54.1z M126.8,56.8c0.2,0.2,0.5,0.3,0.8,0.3c0.4,0,0.7-0.1,1-0.2c0.6-0.3,0.8-0.7,0.8-1.3v-0.8c-0.1,0.1-0.3,0.1-0.5,0.2
			c-0.2,0.1-0.4,0.1-0.6,0.1l-0.6,0.1c-0.4,0-0.6,0.1-0.8,0.2c-0.3,0.2-0.5,0.5-0.5,0.8C126.4,56.4,126.5,56.6,126.8,56.8z"/>
		<path fill="#CCCCCC" d="M132.6,51.7h1v0.8c0.3-0.4,0.6-0.6,0.9-0.8c0.3-0.2,0.7-0.2,1.1-0.2c0.8,0,1.4,0.3,1.7,0.9
			c0.2,0.3,0.2,0.8,0.2,1.4v3.8h-1v-3.8c0-0.4-0.1-0.7-0.2-0.9c-0.2-0.4-0.5-0.6-1-0.6c-0.2,0-0.4,0-0.6,0.1
			c-0.3,0.1-0.5,0.2-0.7,0.5c-0.2,0.2-0.3,0.4-0.3,0.6c-0.1,0.2-0.1,0.5-0.1,0.9v3.1h-1V51.7z"/>
		<path fill="#CCCCCC" d="M143.4,49.5h1.3l4.1,6.6v-6.6h1.1v8.2h-1.2l-4.2-6.6v6.6h-1.1V49.5z"/>
		<path fill="#CCCCCC" d="M156.4,52.3c0.5,0.5,0.8,1.3,0.8,2.3c0,1-0.2,1.8-0.7,2.4c-0.5,0.6-1.2,0.9-2.2,0.9
			c-0.8,0-1.5-0.3-1.9-0.8c-0.5-0.6-0.7-1.3-0.7-2.2c0-1,0.3-1.8,0.8-2.4c0.5-0.6,1.2-0.9,2-0.9C155.3,51.6,155.9,51.8,156.4,52.3z
			 M155.8,56.3c0.2-0.5,0.4-1.1,0.4-1.7c0-0.6-0.1-1-0.3-1.4c-0.3-0.6-0.8-0.8-1.4-0.8c-0.6,0-1,0.2-1.3,0.7c-0.3,0.5-0.4,1-0.4,1.7
			c0,0.6,0.1,1.2,0.4,1.6c0.3,0.4,0.7,0.6,1.3,0.6C155.1,57.1,155.6,56.8,155.8,56.3z"/>
		<path fill="#CCCCCC" d="M159.1,51.7h1v1c0.1-0.2,0.3-0.4,0.6-0.7c0.3-0.3,0.7-0.4,1.1-0.4c0,0,0.1,0,0.1,0c0,0,0.1,0,0.2,0v1.1
			c-0.1,0-0.1,0-0.2,0c0,0-0.1,0-0.2,0c-0.5,0-0.9,0.2-1.2,0.5c-0.3,0.3-0.4,0.7-0.4,1.1v3.4h-1V51.7z"/>
		<path fill="#CCCCCC" d="M163.4,51.7h1v0.8c0.2-0.3,0.5-0.5,0.6-0.6c0.3-0.2,0.7-0.3,1.1-0.3c0.5,0,0.9,0.1,1.2,0.4
			c0.2,0.1,0.3,0.3,0.4,0.6c0.2-0.3,0.5-0.6,0.8-0.7c0.3-0.2,0.6-0.2,1-0.2c0.8,0,1.4,0.3,1.6,0.9c0.2,0.3,0.2,0.7,0.2,1.3v4h-1
			v-4.2c0-0.4-0.1-0.7-0.3-0.8c-0.2-0.1-0.4-0.2-0.7-0.2c-0.4,0-0.7,0.1-1,0.4c-0.3,0.3-0.4,0.7-0.4,1.3v3.5h-1v-3.9
			c0-0.4,0-0.7-0.1-0.9c-0.2-0.3-0.4-0.4-0.9-0.4c-0.4,0-0.7,0.1-1,0.4c-0.3,0.3-0.5,0.8-0.5,1.6v3.2h-1V51.7z"/>
		<path fill="#CCCCCC" d="M176.7,54.1c0.2,0,0.4-0.1,0.5-0.3c0-0.1,0.1-0.2,0.1-0.4c0-0.3-0.1-0.6-0.4-0.7c-0.2-0.2-0.6-0.2-1-0.2
			c-0.5,0-0.9,0.1-1.1,0.4c-0.1,0.2-0.2,0.4-0.2,0.7h-0.9c0-0.7,0.3-1.3,0.7-1.5c0.5-0.3,1-0.4,1.6-0.4c0.7,0,1.3,0.1,1.7,0.4
			c0.4,0.3,0.7,0.7,0.7,1.3v3.4c0,0.1,0,0.2,0.1,0.3c0,0.1,0.1,0.1,0.3,0.1c0,0,0.1,0,0.2,0c0.1,0,0.1,0,0.2,0v0.7
			c-0.2,0-0.3,0.1-0.4,0.1c-0.1,0-0.2,0-0.3,0c-0.3,0-0.6-0.1-0.8-0.4c-0.1-0.1-0.1-0.3-0.2-0.6c-0.2,0.3-0.5,0.5-0.9,0.7
			c-0.4,0.2-0.8,0.3-1.3,0.3c-0.6,0-1-0.2-1.4-0.5c-0.4-0.3-0.5-0.8-0.5-1.3c0-0.6,0.2-1,0.5-1.3c0.3-0.3,0.8-0.5,1.4-0.6
			L176.7,54.1z M174.6,56.8c0.2,0.2,0.5,0.3,0.8,0.3c0.4,0,0.7-0.1,1-0.2c0.6-0.3,0.8-0.7,0.8-1.3v-0.8c-0.1,0.1-0.3,0.1-0.5,0.2
			c-0.2,0.1-0.4,0.1-0.6,0.1l-0.6,0.1c-0.4,0-0.6,0.1-0.8,0.2c-0.3,0.2-0.5,0.5-0.5,0.8C174.3,56.4,174.4,56.6,174.6,56.8z"/>
		<path fill="#CCCCCC" d="M180.5,49.5h1v8.2h-1V49.5z"/>
		<path fill="#CCCCCC" d="M188.7,49.5v5.1c0,0.6,0.1,1.1,0.3,1.5c0.3,0.6,0.9,0.9,1.7,0.9c0.9,0,1.6-0.3,1.9-1
			c0.2-0.4,0.3-0.8,0.3-1.4v-5.1h1.1v4.6c0,1-0.1,1.8-0.4,2.3c-0.5,1-1.4,1.5-2.8,1.5c-1.4,0-2.3-0.5-2.8-1.5
			c-0.3-0.5-0.4-1.3-0.4-2.3v-4.6H188.7z"/>
		<path fill="#CCCCCC" d="M196.1,51.7h1v0.8c0.3-0.4,0.6-0.6,0.9-0.8c0.3-0.2,0.7-0.2,1.1-0.2c0.8,0,1.4,0.3,1.7,0.9
			c0.2,0.3,0.2,0.8,0.2,1.4v3.8h-1v-3.8c0-0.4-0.1-0.7-0.2-0.9c-0.2-0.4-0.5-0.6-1-0.6c-0.2,0-0.4,0-0.6,0.1
			c-0.3,0.1-0.5,0.2-0.7,0.5c-0.2,0.2-0.3,0.4-0.3,0.6c-0.1,0.2-0.1,0.5-0.1,0.9v3.1h-1V51.7z"/>
		<path fill="#CCCCCC" d="M203.1,49.5h1v1.1h-1V49.5z M203.1,51.8h1v6h-1V51.8z"/>
		<path fill="#CCCCCC" d="M206.7,51.7l1.6,4.9l1.7-4.9h1.1l-2.3,6h-1.1l-2.2-6H206.7z"/>
		<path fill="#CCCCCC" d="M216.2,51.9c0.4,0.2,0.7,0.5,0.9,0.8c0.2,0.3,0.3,0.7,0.4,1.1c0.1,0.3,0.1,0.7,0.1,1.3h-4.4
			c0,0.6,0.2,1.1,0.4,1.5c0.3,0.4,0.7,0.6,1.2,0.6c0.5,0,0.9-0.2,1.2-0.5c0.2-0.2,0.3-0.4,0.4-0.7h1c0,0.2-0.1,0.5-0.3,0.7
			c-0.1,0.3-0.3,0.5-0.5,0.7c-0.3,0.3-0.7,0.5-1.1,0.6c-0.2,0.1-0.5,0.1-0.8,0.1c-0.7,0-1.4-0.3-1.9-0.8c-0.5-0.5-0.8-1.3-0.8-2.3
			c0-1,0.3-1.7,0.8-2.3c0.5-0.6,1.2-0.9,2-0.9C215.4,51.6,215.8,51.7,216.2,51.9z M216.5,54.2c0-0.4-0.1-0.8-0.3-1
			c-0.3-0.5-0.7-0.7-1.4-0.7c-0.5,0-0.8,0.2-1.2,0.5s-0.5,0.8-0.5,1.3H216.5z"/>
		<path fill="#CCCCCC" d="M219.4,51.7h1v1c0.1-0.2,0.3-0.4,0.6-0.7c0.3-0.3,0.7-0.4,1.1-0.4c0,0,0,0,0.1,0c0,0,0.1,0,0.2,0v1.1
			c-0.1,0-0.1,0-0.2,0c-0.1,0-0.1,0-0.2,0c-0.5,0-0.9,0.2-1.2,0.5c-0.3,0.3-0.4,0.7-0.4,1.1v3.4h-1V51.7z"/>
		<path fill="#CCCCCC" d="M224.4,55.8c0,0.3,0.1,0.6,0.3,0.8c0.3,0.3,0.7,0.5,1.3,0.5c0.4,0,0.7-0.1,1-0.2c0.3-0.2,0.4-0.4,0.4-0.8
			c0-0.3-0.1-0.5-0.3-0.6c-0.1-0.1-0.4-0.2-0.9-0.3l-0.8-0.2c-0.5-0.1-0.9-0.3-1.1-0.4c-0.4-0.3-0.7-0.6-0.7-1.1
			c0-0.6,0.2-1,0.6-1.4c0.4-0.4,1-0.5,1.7-0.5c0.9,0,1.6,0.3,2,0.8c0.3,0.3,0.4,0.7,0.4,1.1h-0.9c0-0.2-0.1-0.4-0.2-0.6
			c-0.2-0.3-0.6-0.4-1.2-0.4c-0.4,0-0.7,0.1-0.9,0.2c-0.2,0.1-0.3,0.3-0.3,0.6c0,0.3,0.1,0.5,0.4,0.6c0.2,0.1,0.4,0.2,0.7,0.2
			l0.7,0.2c0.7,0.2,1.2,0.3,1.5,0.5c0.4,0.3,0.6,0.7,0.6,1.2c0,0.5-0.2,1-0.6,1.4c-0.4,0.4-1,0.6-1.9,0.6c-0.9,0-1.5-0.2-1.9-0.6
			c-0.4-0.4-0.6-0.9-0.6-1.5H224.4z"/>
		<path fill="#CCCCCC" d="M230.1,49.5h1v1.1h-1V49.5z M230.1,51.8h1v6h-1V51.8z"/>
		<path fill="#CCCCCC" d="M233.4,50.1h1v1.7h1v0.8h-1v3.9c0,0.2,0.1,0.3,0.2,0.4c0.1,0,0.2,0.1,0.4,0.1c0,0,0.1,0,0.2,0
			c0.1,0,0.1,0,0.2,0v0.8c-0.1,0-0.2,0.1-0.4,0.1c-0.1,0-0.3,0-0.4,0c-0.5,0-0.8-0.1-1-0.4c-0.2-0.2-0.3-0.6-0.3-0.9v-4h-0.8v-0.8
			h0.8V50.1z"/>
		<path fill="#CCCCCC" d="M240.7,51.7h1.1c-0.1,0.4-0.5,1.3-0.9,2.6c-0.4,1-0.7,1.9-0.9,2.5c-0.6,1.5-1,2.5-1.2,2.8
			c-0.2,0.3-0.6,0.5-1.2,0.5c-0.1,0-0.3,0-0.3,0c-0.1,0-0.2,0-0.3-0.1v-0.9c0.2,0,0.3,0.1,0.4,0.1c0.1,0,0.1,0,0.2,0
			c0.2,0,0.3,0,0.4-0.1c0.1-0.1,0.2-0.1,0.2-0.2c0,0,0.1-0.2,0.2-0.5c0.1-0.3,0.2-0.5,0.3-0.6l-2.2-6.2h1.1l1.6,4.9L240.7,51.7z"/>
	</g>
	<g>
		<path fill="#CCCCCC" d="M103.2,67.5c0.3,0.1,1,0.5,2,1.2l-0.7,0.9c-0.5-0.4-1.1-0.8-1.9-1.2L103.2,67.5z M103.9,70.1l1,0.4
			c-0.3,1.8-0.7,3.2-1.1,4.2l-1.1-0.6C103.1,73.1,103.5,71.8,103.9,70.1z M104,64.8c0.6,0.3,1.3,0.8,1.9,1.2l-0.7,0.8
			c-0.6-0.5-1.2-1-1.9-1.3L104,64.8z M106.6,64.6c0.8,0,1.2,0,1.2,0.1c0,0,0,0.1,0,0.2c-0.2,0.2-0.2,0.4-0.2,0.6V67h0.6
			c0.2,0,0.6,0,1.1,0v0.9c-0.5,0-0.9,0-1.1,0h-0.6v1.6h0.3c0.3,0,0.6,0,0.9-0.1c0,0.3,0,0.7,0,0.9v2.2c0,0.3,0,0.6,0,1h-1
			c0,0,0-0.2,0-0.7h-1.5V73c0,0.3,0,0.5,0,0.8h-0.9c0-0.4,0-0.8,0-1.1v-2.4c0-0.2,0-0.5,0-0.9c0.4,0,0.6,0,0.8,0h0.4v-1.6h-0.5
			c-0.2,0-0.5,0-0.9,0V67c0.3,0,0.6,0,0.9,0h0.5v-1.6C106.7,65.2,106.6,64.9,106.6,64.6z M106.3,70.2v1.8h1.5v-1.8H106.3z
			 M109.5,69.5v-3.1c0-0.4,0-0.8-0.1-1.2c0.3,0,0.8,0,1.2,0h1c0.4,0,0.8,0,1.2,0c0,0,0,0.1,0,0.1c0,0.3,0,0.7,0,1v7.1
			c0.2,1-0.4,1.4-1.9,1.5c-0.1-0.5-0.3-0.8-0.5-1c-0.1,0-0.1-0.1,0-0.1c1,0.2,1.5,0,1.5-0.3v-2.2h-1.5c-0.1,1.4-0.7,2.7-1.8,3.8
			c-0.3-0.2-0.7-0.3-1.2-0.4C108.9,73.7,109.6,72,109.5,69.5z M110.4,68.7l0,1.9h1.4v-1.9H110.4z M110.4,66.1V68h1.4v-1.9H110.4z"/>
		<path fill="#CCCCCC" d="M120.1,64.3c0.7,0,1.2,0,1.4,0.2c0,0,0,0.1,0,0.2c-0.2,0.3-0.3,0.6-0.3,1.1h3.1c0.6,0,1.2,0,1.8-0.1v1.1
			c-0.6-0.1-1.2-0.1-1.8-0.1h-3.2v1.2h2.3c0.7,0,1.3,0,1.8-0.1V68c0,0.4,0,0.9,0,1.4v4.8c0,0.4-0.1,0.6-0.3,0.7
			c-0.1,0.1-0.7,0.2-1.6,0.3c0-0.4-0.2-0.8-0.5-1.1c1.1,0.1,1.6,0,1.5-0.4v-4.9h-6.9v4.9l0,1.6h-1.1c0.1-0.4,0.1-0.9,0.1-1.5v-4.3
			c0-0.5,0-0.9-0.1-1.4c0-0.1,0-0.2,0-0.2c0.4,0.1,0.9,0.1,1.5,0.1h2.4v-1.2h-3c-1,0-1.5,0-1.8,0.1v-1.1c0.2,0.1,0.8,0.1,1.9,0.1
			h2.9V65C120.1,64.7,120.1,64.5,120.1,64.3z M121.5,68.9c0.8,0.2,1.2,0.3,1.2,0.4c0,0,0,0.1-0.1,0.1c-0.3,0.3-0.6,0.6-0.8,1.1h0.6
			c0.1,0,0.4,0,1,0v0.9c0,0-0.3,0-1.1,0h-1.2v1h1.3c0.3,0,0.6,0,1.1,0v0.8c-0.5,0-0.8,0-1.1,0h-1.3v0.9c0,0.4,0,0.8,0.1,1.2h-1.1
			c0.1-0.2,0.1-0.6,0.1-1.2V73h-1.2c-0.2,0-0.6,0-1.2,0v-0.8c0.4,0,0.8,0,1.2,0h1.2v-1h-1.1c-0.1,0-0.5,0-1.1,0v-0.9
			c0.4,0,0.7,0,1,0h2C121.3,70,121.5,69.5,121.5,68.9z M119.6,68.9c0.2,0.2,0.3,0.6,0.5,1.1l-0.9,0.3c-0.2-0.5-0.3-0.9-0.5-1.1
			L119.6,68.9z"/>
		<path fill="#CCCCCC" d="M130.6,64.4c0.8,0.1,1.2,0.1,1.3,0.2c0,0,0,0.1,0,0.1c-0.1,0.2-0.1,0.3-0.1,0.5c-0.1,0.4-0.1,1.3-0.1,2.7
			c0,1.9-0.1,3.2-0.2,3.9c-0.2,1.3-1.1,2.4-2.6,3.4c-0.3-0.3-0.6-0.6-1.1-0.8c1.6-0.5,2.6-1.5,2.8-3.1c0.1-0.7,0.1-1.9,0.1-3.6
			C130.7,66.2,130.7,65,130.6,64.4z M128.4,65.6c0.9,0,1.3,0.1,1.3,0.2c0,0,0,0.1,0,0.2c-0.1,0.3-0.2,0.5-0.2,0.8v3.6
			c0,0.7,0,1.3,0.1,1.9h-1.2c0-0.3,0.1-0.9,0.1-1.9v-4C128.5,66.1,128.4,65.9,128.4,65.6z M132.4,65c0.7,0.1,1.3,0.1,1.8,0.1h2.6
			c0.7,0,1.4,0,2-0.1v1c-0.5-0.1-1.1-0.1-2-0.1h-1v1.7h0.6c0.8,0,1.4,0,1.9-0.1c0,0.5-0.1,1.2-0.1,1.9v3.3c-0.1,0.5-0.6,0.8-1.8,1
			c-0.1-0.4-0.2-0.8-0.5-1.2c0.8,0.1,1.3-0.1,1.3-0.5v-3.4h-1.5v4.5c0,0.7,0,1.4,0.1,2.1h-1.2c0.1-0.4,0.1-1.1,0.1-2.1v-4.5h-1.3v3
			c0,1,0.1,1.7,0.1,2h-1.2c0.1-0.3,0.1-1,0.1-2.1v-2.2c0-1,0-1.6,0-1.7c0.8,0.1,1.4,0.1,1.9,0.1h0.5v-1.7h-0.6c-0.6,0-1.2,0-1.8,0.1
			V65z"/>
		<path fill="#CCCCCC" d="M145.6,64.4c1,0,1.4,0.1,1.4,0.2c0,0.1,0,0.1-0.1,0.2c-0.2,0.3-0.2,0.7-0.2,1.1v1.7h2.2
			c1.1,0,1.9,0,2.3-0.1v1.2c-0.4-0.1-1.2-0.1-2.3-0.1h-2c0.6,2.9,2.2,4.7,4.9,5.3c-0.4,0.2-0.9,0.6-1.2,1.1c-2.4-1.3-3.8-3-4.2-5.2
			c-0.3,2.4-1.8,4.2-4.6,5.4c-0.3-0.3-0.6-0.7-1.2-1c3-0.7,4.7-2.6,5-5.6H143c-0.9,0-1.6,0-1.9,0.1v-1.2c0.4,0.1,1,0.1,1.9,0.1h2.6
			v-2C145.7,65.2,145.6,64.8,145.6,64.4C145.6,64.4,145.6,64.4,145.6,64.4z"/>
		<path fill="#CCCCCC" d="M158.4,70.6c0,0,0.1,0,0.1,0c0.7,0.1,1,0.1,1.1,0.2c0,0,0,0.1-0.1,0.2c-0.2,0.2-0.3,0.4-0.3,0.6h2.2
			c1,0,1.6,0,1.8,0h0v1h0c-0.2-0.1-0.7-0.1-1.7-0.1h-1.9c1.3,1.1,2.9,1.6,4.8,1.5l0,0c-0.3,0.4-0.6,0.7-0.7,1.1
			c-2.3-0.4-3.9-1.2-4.7-2.3c-0.6,1.2-2,2-4.3,2.4c-0.2-0.4-0.5-0.8-0.9-1c2.4,0.1,3.9-0.5,4.5-1.7h-1.7c-0.9,0-1.4,0-1.6,0.1h0v-1
			h0c0.2,0,0.8,0,1.7,0h1.7C158.4,71.3,158.4,71,158.4,70.6z M160.6,64.4c0.8,0.3,1.2,0.4,1.1,0.5c0,0.1,0,0.1-0.1,0.1
			c-0.1,0.1-0.3,0.2-0.4,0.4c-0.2,0.2-0.4,0.4-0.6,0.7h1.4c0.9,0,1.5,0,1.6-0.1v1c-0.2-0.1-0.7-0.1-1.6-0.1h-2.6v1h1.8
			c0.9,0,1.4,0,1.6,0v0.9h0c-0.2,0-0.7,0-1.6,0h-1.7v1h2.8c1.1,0,1.7,0,1.9-0.1v1c-0.2,0-0.8,0-1.9,0h-6.4c-1,0-1.6,0-1.8,0h0v-1h0
			c0.2,0.1,0.8,0.1,1.7,0.1h2.8v-1H157c-1,0-1.6,0-1.7,0v-0.9c0.2,0,0.7,0,1.7,0h1.6v-1h-2.4c-0.8,0-1.3,0-1.5,0.1h0v-1
			c0.2,0.1,0.7,0.1,1.5,0.1h3.7C160.1,65.4,160.4,64.9,160.6,64.4z M156.5,64.9l0.9-0.4c0.4,0.4,0.7,0.8,1,1.2l-0.8,0.3
			C157.1,65.5,156.8,65.1,156.5,64.9z"/>
		<path fill="#CCCCCC" d="M171.3,64.3c0.7,0,1.2,0.1,1.4,0.3c0,0,0,0.1,0,0.1c-0.2,0.3-0.3,0.8-0.3,1.4v1h2.8c0.5,0,1,0,1.6-0.1
			c0.1,0,0.2,0,0.2,0v1.1h-0.1c-0.6-0.1-1.1-0.1-1.6-0.1h-2.1c0.7,2.6,2.2,4.2,4.3,4.8c-0.4,0.3-0.7,0.6-1.1,1.1
			c-2.1-1.2-3.5-3.2-4-5.9v5.6c0,0.5,0,1,0.1,1.4c0,0.1,0,0.2,0,0.2h-1.2c0-0.1,0-0.2,0-0.3c0-0.5,0-1,0-1.3v-5.5
			c-0.2,1.8-1.6,3.9-4,6c-0.2-0.3-0.6-0.6-1.1-0.8c2.1-1.2,3.5-2.9,4.4-5.3h-1.9c-0.5,0-1.1,0-1.7,0.1c-0.1,0-0.2,0-0.2,0V67
			c0,0,0.1,0,0.2,0c0.6,0.1,1.2,0.1,1.7,0.1h2.6v-1.3c0-0.3,0-0.8-0.1-1.3C171.3,64.4,171.3,64.3,171.3,64.3z M174.5,64.9
			c0.7,0.7,1.2,1.2,1.4,1.5l-1.1,0.6c-0.4-0.7-0.9-1.2-1.3-1.6L174.5,64.9z"/>
		<path fill="#CCCCCC" d="M181.3,68.9c0,0,0.1,0,0.2,0c0.5,0.1,1.1,0.1,1.6,0.1h3.9c0.6,0,1,0,1.1,0v1.1c-0.7,0.1-1.6,0.4-2.7,0.9
			v0.4h2.6c0.6,0,1.2,0,1.8-0.1c0.1,0,0.2,0,0.2,0v1.1c0,0-0.1,0-0.2,0c-0.6-0.1-1.1-0.1-1.7-0.1h-2.8v1.8c0.2,0.8-0.5,1.1-1.9,1.1
			c-0.1-0.5-0.3-0.9-0.5-1.1c1,0.2,1.5,0.1,1.5-0.2v-1.5h-3.3c-0.4,0-0.9,0-1.5,0.1c-0.2,0-0.3,0-0.3,0v-1.1c0,0,0.1,0,0.3,0
			c0.6,0.1,1.1,0.1,1.4,0.1h3.3v-0.9c0.6-0.2,1.2-0.5,2-0.7h-3.2c-0.5,0-1.1,0-1.7,0.1h-0.1V68.9z M187.5,64.2
			c0.6,0.2,1,0.4,1.2,0.6c0,0,0,0.1-0.1,0.1c-0.2,0.1-0.3,0.2-0.3,0.3c-0.4,0.5-0.8,1.1-1.1,1.7h1.3c0.3,0,0.6,0,1,0
			c0.2,0,0.3,0,0.3,0c0,0.1,0,0.5,0,1.1c0,0.2,0,0.5,0,0.9c0,0.1,0,0.2,0,0.2h-1.1c0-0.1,0-0.5,0-1.4h-8.2c0,1,0,1.5,0,1.5h-1.1
			c0,0,0-0.1,0-0.2c0.1-0.3,0.1-0.7,0.1-1c0-0.6,0-1,0-1.2c0.2,0,0.6,0.1,1.2,0.1h5.4C186.7,66.2,187.2,65.3,187.5,64.2z
			 M181.7,64.7c0.3,0.3,0.7,0.8,1.2,1.6l-1,0.4c-0.3-0.6-0.7-1.1-1.1-1.5L181.7,64.7z M184.8,64.3c0.1,0.2,0.3,0.8,0.7,1.8l-1.1,0.2
			c-0.1-0.5-0.3-1.1-0.6-1.9L184.8,64.3z"/>
		<path fill="#CCCCCC" d="M192.3,65c0.3,0.1,0.7,0.1,1.3,0.1h1.1c0.6,0,1,0,1.3-0.1c-0.2,0.5-0.4,1-0.6,1.7c-0.2,0.7-0.4,1.4-0.7,2
			c0.7,1,1,1.9,1,2.6c-0.1,1-0.7,1.5-1.9,1.7c0-0.5-0.1-0.9-0.5-1.2c1,0.2,1.5,0,1.4-0.8c0-0.8-0.4-1.5-1-2.1c0.2-0.6,0.6-1.6,1-3.1
			h-1.5v1.9v6.2c0,0.5,0,0.9,0,1.2h-1c0-0.3,0-0.7,0-1.2v-6.1v-1.8C192.4,65.6,192.4,65.3,192.3,65z M196,70c0.1,0,0.4,0,0.9,0
			c0.3,0,0.4,0,0.4,0h3.2c0.1,0,0.3,0,0.7,0c0.6,0,1,0,1.2,0v0.9c-0.2,0-0.8,0-1.8,0h-0.3v2.8c0,0.3,0.2,0.5,0.7,0.5
			c0.5,0.1,0.8-0.4,0.9-1.4c0.4,0.3,0.8,0.6,1,0.7c-0.2,1.1-0.7,1.7-1.5,1.6h-0.9c-0.9,0.1-1.3-0.2-1.2-0.9v-3.2h-1
			c-0.1,1.2-0.3,2.1-0.6,2.7c-0.4,0.6-1.3,1.1-2.4,1.5l0,0c-0.3-0.4-0.6-0.7-0.9-0.9c2.1-0.1,3.1-1.2,3.1-3.3h-0.2c0,0-0.2,0-0.4,0
			c-0.4,0-0.7,0-0.9,0V70z M199.5,64.4l0.4,1.5h1.8c0.4,0,0.7,0,1,0c0,0.4,0,0.7,0,1c0,0.2,0,0.5,0.1,1h-1.2c0-0.4,0-0.7,0-1h-4.7
			c0,0.4,0,0.7,0,1h-1c0,0,0-0.3,0-0.9c0-0.4,0-0.7,0-1c0.4,0,0.7,0,1.1,0h1.8c-0.1-0.5-0.3-0.9-0.6-1.3L199.5,64.4z M196.7,68
			c0.3,0,0.9,0,1.8,0h1.5c0.8,0,1.3,0,1.6,0v0.9c-0.2,0-0.7,0-1.6,0h-1.5c-0.9,0-1.5,0-1.8,0V68z"/>
	</g>
</g>
</svg>
